<?xml version="1.0" encoding="UTF-8" standalone="no"?>
<!-- Created with Inkscape (http://www.inkscape.org/) -->

<svg
   xmlns:dc="http://purl.org/dc/elements/1.1/"
   xmlns:cc="http://creativecommons.org/ns#"
   xmlns:rdf="http://www.w3.org/1999/02/22-rdf-syntax-ns#"
   xmlns:svg="http://www.w3.org/2000/svg"
   xmlns="http://www.w3.org/2000/svg"
   xmlns:xlink="http://www.w3.org/1999/xlink"
   xmlns:sodipodi="http://sodipodi.sourceforge.net/DTD/sodipodi-0.dtd"
   xmlns:inkscape="http://www.inkscape.org/namespaces/inkscape"
   width="126.82313"
   height="51.343048"
   viewBox="0 0 33.555286 13.584515"
   version="1.1"
   id="svg54904"
   inkscape:version="0.92.3 (2405546, 2018-03-11)"
   sodipodi:docname="calendar-selected.svg">
  <title
     id="title831">calendar v0.1</title>
  <defs
     id="defs54898">
    <linearGradient
       inkscape:collect="always"
       id="linearGradient8597">
      <stop
         style="stop-color:#404040;stop-opacity:1;"
         offset="0"
         id="stop8593" />
      <stop
         style="stop-color:#c4c4c4;stop-opacity:1"
         offset="1"
         id="stop8595" />
    </linearGradient>
    <linearGradient
       inkscape:collect="always"
       id="linearGradient7571">
      <stop
         style="stop-color:#404040;stop-opacity:1;"
         offset="0"
         id="stop7567" />
      <stop
         style="stop-color:#404040;stop-opacity:0;"
         offset="1"
         id="stop7569" />
    </linearGradient>
    <linearGradient
       inkscape:collect="always"
       xlink:href="#linearGradient7571"
       id="linearGradient7575"
       x1="-31.45418"
       y1="314.81302"
       x2="-31.41428"
       y2="288.1828"
       gradientUnits="userSpaceOnUse"
       gradientTransform="translate(-0.323705,-35.490331)" />
    <linearGradient
       inkscape:collect="always"
       xlink:href="#linearGradient8597"
       id="linearGradient8749"
       gradientUnits="userSpaceOnUse"
       x1="-53.526844"
       y1="283.96008"
       x2="-53.30695"
       y2="257.41086" />
    <filter
       inkscape:collect="always"
       style="color-interpolation-filters:sRGB"
       id="filter1143"
       x="-0.071640707"
       width="1.1432814"
       y="-0.36925955"
       height="1.7385191">
      <feGaussianBlur
         inkscape:collect="always"
         stdDeviation="0.74844758"
         id="feGaussianBlur1145" />
    </filter>
  </defs>
  <sodipodi:namedview
     id="base"
     pagecolor="#ffffff"
     bordercolor="#666666"
     borderopacity="1.0"
     inkscape:pageopacity="0.0"
     inkscape:pageshadow="2"
     inkscape:zoom="1"
     inkscape:cx="74.507813"
     inkscape:cy="-187.57317"
     inkscape:document-units="px"
     inkscape:current-layer="layer1"
     showgrid="false"
     units="px"
     inkscape:showpageshadow="false"
     objecttolerance="10"
     gridtolerance="10"
     guidetolerance="10"
     inkscape:window-width="1366"
     inkscape:window-height="715"
     inkscape:window-x="-8"
     inkscape:window-y="-8"
     inkscape:window-maximized="1"
     fit-margin-top="0"
     fit-margin-left="0"
     fit-margin-right="0"
     fit-margin-bottom="0" />
  <metadata
     id="metadata54901">
    <rdf:RDF>
      <cc:Work
         rdf:about="">
        <dc:format>image/svg+xml</dc:format>
        <dc:type
           rdf:resource="http://purl.org/dc/dcmitype/StillImage" />
        <dc:title>calendar v0.1</dc:title>
        <dc:date>4/10/2020</dc:date>
        <dc:creator>
          <cc:Agent>
            <dc:title>Bill McCutchan</dc:title>
          </cc:Agent>
        </dc:creator>
        <dc:rights>
          <cc:Agent>
            <dc:title />
          </cc:Agent>
        </dc:rights>
        <dc:description>This image was created for use on a promotional website I created in April 2020.  Please consider it copyrighted.  You may use or distribute this image free of charge as long as you make no charge for it and as long as you properly attribute it to me.</dc:description>
      </cc:Work>
    </rdf:RDF>
  </metadata>
  <g
     inkscape:label="Layer 1"
     inkscape:groupmode="layer"
     id="layer1"
     transform="translate(-63.530096,-198.59545)">
    <g
       id="g55616" />
    <text
       xml:space="preserve"
       style="font-style:normal;font-weight:normal;font-size:10.58333397px;line-height:1.25;font-family:sans-serif;letter-spacing:0px;word-spacing:0px;fill:#000000;fill-opacity:1;stroke:none;stroke-width:0.26458335"
       x="67.436859"
       y="207.75449"
       id="text835"><tspan
         sodipodi:role="line"
         id="tspan833"
         x="67.436859"
         y="207.75449"
         style="font-style:normal;font-variant:normal;font-weight:normal;font-stretch:normal;font-size:7.05555582px;font-family:Calibri;-inkscape-font-specification:'Calibri, Normal';font-variant-ligatures:normal;font-variant-caps:normal;font-variant-numeric:normal;font-feature-settings:normal;text-align:start;writing-mode:lr-tb;text-anchor:start;stroke-width:0.26458335">Calendar</tspan></text>
    <g
       aria-label="Calendar"
       style="font-style:normal;font-weight:normal;font-size:10.58333302px;line-height:1.25;font-family:sans-serif;letter-spacing:0px;word-spacing:0px;fill:#0000ff;fill-opacity:1;stroke:none;stroke-width:0.26458335;filter:url(#filter1143)"
       id="text835-8"
       transform="translate(-2.0078025,-28.752638)">
      <path
         d="m 73.013753,235.8767 q 0,0.0551 -0.0034,0.0965 -0.0034,0.0413 -0.01378,0.0723 -0.0069,0.031 -0.02067,0.0551 -0.01378,0.0241 -0.04823,0.0586 -0.03445,0.0344 -0.144694,0.1068 -0.110243,0.0689 -0.275608,0.1378 -0.161919,0.0655 -0.375515,0.11025 -0.210151,0.0482 -0.461643,0.0482 -0.434082,0 -0.785482,-0.1447 -0.347954,-0.14469 -0.596001,-0.42719 -0.244602,-0.2825 -0.378961,-0.69591 -0.130913,-0.41685 -0.130913,-0.95773 0,-0.55466 0.141249,-0.98875 0.144694,-0.43408 0.403076,-0.7338 0.258382,-0.30317 0.616672,-0.46164 0.361735,-0.15848 0.799262,-0.15848 0.192926,0 0.375516,0.0379 0.18259,0.0344 0.337619,0.0896 0.155029,0.0551 0.275608,0.12747 0.120578,0.0724 0.165364,0.12058 0.04823,0.0448 0.06201,0.0689 0.01378,0.0241 0.02067,0.0586 0.01034,0.031 0.01378,0.0758 0.0069,0.0448 0.0069,0.1068 0,0.0689 -0.0069,0.11713 -0.0069,0.0482 -0.02067,0.0827 -0.01378,0.031 -0.03445,0.0482 -0.01723,0.0138 -0.04479,0.0138 -0.04823,0 -0.134359,-0.0655 -0.08613,-0.0689 -0.223931,-0.14814 -0.134359,-0.0827 -0.330729,-0.14814 -0.192925,-0.0689 -0.465088,-0.0689 -0.296278,0 -0.54088,0.12057 -0.241157,0.11714 -0.413411,0.34796 -0.172255,0.23082 -0.268718,0.56499 -0.09302,0.33073 -0.09302,0.75793 0,0.42374 0.08957,0.75103 0.09302,0.32384 0.261827,0.54432 0.172255,0.21704 0.420302,0.33073 0.248047,0.11024 0.561551,0.11024 0.265272,0 0.461642,-0.0654 0.199816,-0.0655 0.33762,-0.1447 0.141249,-0.0827 0.230821,-0.14814 0.08957,-0.0654 0.141249,-0.0654 0.02412,0 0.04134,0.0103 0.01723,0.0103 0.02756,0.0413 0.01033,0.0276 0.01378,0.0792 0.0069,0.0517 0.0069,0.13091 z"
         style="font-style:normal;font-variant:normal;font-weight:normal;font-stretch:normal;font-size:7.05555582px;font-family:Calibri;-inkscape-font-specification:'Calibri, Normal';font-variant-ligatures:normal;font-variant-caps:normal;font-variant-numeric:normal;font-feature-settings:normal;text-align:start;writing-mode:lr-tb;text-anchor:start;fill:#0000ff;fill-opacity:1;stroke-width:0.26458335"
         id="path1126"
         inkscape:connector-curvature="0" />
      <path
         d="m 76.069552,236.42447 q 0,0.0413 -0.02756,0.062 -0.02756,0.0207 -0.07579,0.031 -0.04823,0.0103 -0.141249,0.0103 -0.08957,0 -0.144694,-0.0103 -0.05168,-0.0103 -0.07579,-0.031 -0.02411,-0.0207 -0.02411,-0.062 v -0.31005 q -0.203261,0.21704 -0.454753,0.33761 -0.248047,0.12058 -0.527099,0.12058 -0.244602,0 -0.444418,-0.0654 -0.19637,-0.062 -0.337619,-0.18259 -0.137804,-0.12058 -0.217041,-0.29628 -0.07579,-0.1757 -0.07579,-0.39963 0,-0.26183 0.106798,-0.45476 0.106798,-0.19292 0.306613,-0.32039 0.199816,-0.12747 0.489204,-0.18948 0.289388,-0.0655 0.651123,-0.0655 h 0.427192 v -0.24115 q 0,-0.17915 -0.0379,-0.31695 -0.0379,-0.13781 -0.124024,-0.22738 -0.08268,-0.093 -0.217041,-0.1378 -0.134359,-0.0482 -0.330729,-0.0482 -0.210151,0 -0.378961,0.0517 -0.165364,0.0482 -0.292833,0.11025 -0.124023,0.0586 -0.21015,0.11024 -0.08268,0.0482 -0.124024,0.0482 -0.02756,0 -0.04823,-0.0138 -0.02067,-0.0138 -0.0379,-0.0413 -0.01378,-0.0276 -0.02067,-0.0689 -0.0069,-0.0448 -0.0069,-0.0965 0,-0.0861 0.01033,-0.13435 0.01378,-0.0517 0.05857,-0.0965 0.04823,-0.0448 0.161919,-0.10335 0.113688,-0.062 0.261828,-0.11024 0.148139,-0.0517 0.323839,-0.0827 0.175699,-0.0344 0.354844,-0.0344 0.334175,0 0.568441,0.0758 0.234267,0.0758 0.378961,0.22393 0.144694,0.14469 0.210151,0.36173 0.06546,0.21704 0.06546,0.50643 z m -0.564995,-1.41593 h -0.485759 q -0.234266,0 -0.406521,0.0413 -0.172255,0.0379 -0.285943,0.11713 -0.113688,0.0758 -0.16881,0.18604 -0.05168,0.1068 -0.05168,0.24805 0,0.24115 0.151584,0.38585 0.155029,0.14125 0.430637,0.14125 0.223931,0 0.413412,-0.11369 0.192925,-0.11369 0.403076,-0.34796 z"
         style="font-style:normal;font-variant:normal;font-weight:normal;font-stretch:normal;font-size:7.05555582px;font-family:Calibri;-inkscape-font-specification:'Calibri, Normal';font-variant-ligatures:normal;font-variant-caps:normal;font-variant-numeric:normal;font-feature-settings:normal;text-align:start;writing-mode:lr-tb;text-anchor:start;fill:#0000ff;fill-opacity:1;stroke-width:0.26458335"
         id="path1128"
         inkscape:connector-curvature="0" />
      <path
         d="m 77.678412,236.42103 q 0,0.0276 -0.01378,0.0482 -0.01378,0.0172 -0.04479,0.031 -0.03101,0.0138 -0.08613,0.0207 -0.05512,0.007 -0.141249,0.007 -0.08268,0 -0.137804,-0.007 -0.05512,-0.007 -0.08957,-0.0207 -0.03101,-0.0138 -0.04479,-0.031 -0.01033,-0.0207 -0.01033,-0.0482 v -4.60265 q 0,-0.0276 0.01033,-0.0482 0.01378,-0.0207 0.04479,-0.0344 0.03445,-0.0138 0.08957,-0.0207 0.05512,-0.007 0.137804,-0.007 0.08613,0 0.141249,0.007 0.05512,0.007 0.08613,0.0207 0.03101,0.0138 0.04479,0.0344 0.01378,0.0207 0.01378,0.0482 z"
         style="font-style:normal;font-variant:normal;font-weight:normal;font-stretch:normal;font-size:7.05555582px;font-family:Calibri;-inkscape-font-specification:'Calibri, Normal';font-variant-ligatures:normal;font-variant-caps:normal;font-variant-numeric:normal;font-feature-settings:normal;text-align:start;writing-mode:lr-tb;text-anchor:start;fill:#0000ff;fill-opacity:1;stroke-width:0.26458335"
         id="path1130"
         inkscape:connector-curvature="0" />
      <path
         d="m 81.38189,234.73638 q 0,0.13436 -0.0689,0.19292 -0.06546,0.0551 -0.151584,0.0551 h -2.032607 q 0,0.25839 0.05168,0.46509 0.05168,0.20671 0.172254,0.35485 0.120579,0.14814 0.313504,0.22737 0.192926,0.0792 0.471978,0.0792 0.220486,0 0.392741,-0.0345 0.172255,-0.0379 0.296278,-0.0827 0.127469,-0.0448 0.206706,-0.0792 0.08268,-0.0379 0.124024,-0.0379 0.02411,0 0.04134,0.0138 0.02067,0.0103 0.03101,0.0345 0.01033,0.0241 0.01378,0.0689 0.0069,0.0413 0.0069,0.10335 0,0.0448 -0.0034,0.0792 -0.0034,0.031 -0.01033,0.0586 -0.0034,0.0241 -0.01723,0.0448 -0.01033,0.0207 -0.03101,0.0413 -0.01722,0.0172 -0.110243,0.062 -0.09302,0.0413 -0.241156,0.0827 -0.148139,0.0413 -0.34451,0.0723 -0.192925,0.0344 -0.413411,0.0344 -0.382406,0 -0.671794,-0.10679 -0.285943,-0.1068 -0.482313,-0.31695 -0.196371,-0.21015 -0.296279,-0.5271 -0.09991,-0.31695 -0.09991,-0.73725 0,-0.39963 0.103352,-0.71658 0.103353,-0.3204 0.296279,-0.54088 0.19637,-0.22393 0.471978,-0.34107 0.275607,-0.12058 0.616672,-0.12058 0.36518,0 0.620117,0.11714 0.258382,0.11713 0.423747,0.31695 0.165364,0.19637 0.241157,0.46508 0.07924,0.26528 0.07924,0.56844 z m -0.571886,-0.16881 q 0.01033,-0.44786 -0.199816,-0.7028 -0.206705,-0.25494 -0.616672,-0.25494 -0.210151,0 -0.368625,0.0792 -0.158474,0.0792 -0.265272,0.21015 -0.106798,0.13091 -0.165365,0.30661 -0.05857,0.17226 -0.06546,0.36174 z"
         style="font-style:normal;font-variant:normal;font-weight:normal;font-stretch:normal;font-size:7.05555582px;font-family:Calibri;-inkscape-font-specification:'Calibri, Normal';font-variant-ligatures:normal;font-variant-caps:normal;font-variant-numeric:normal;font-feature-settings:normal;text-align:start;writing-mode:lr-tb;text-anchor:start;fill:#0000ff;fill-opacity:1;stroke-width:0.26458335"
         id="path1132"
         inkscape:connector-curvature="0" />
      <path
         d="m 84.920003,236.42103 q 0,0.0276 -0.01378,0.0482 -0.01378,0.0172 -0.04479,0.031 -0.03101,0.0138 -0.08613,0.0207 -0.05512,0.007 -0.137803,0.007 -0.08613,0 -0.141249,-0.007 -0.05512,-0.007 -0.08613,-0.0207 -0.03101,-0.0138 -0.04479,-0.031 -0.01378,-0.0207 -0.01378,-0.0482 v -1.81557 q 0,-0.26527 -0.04134,-0.42719 -0.04134,-0.16192 -0.120579,-0.27905 -0.07924,-0.11713 -0.206706,-0.17915 -0.124023,-0.062 -0.289388,-0.062 -0.213595,0 -0.427191,0.15159 -0.213596,0.15158 -0.447863,0.44441 v 2.16697 q 0,0.0276 -0.01378,0.0482 -0.01378,0.0172 -0.04479,0.031 -0.03101,0.0138 -0.08613,0.0207 -0.05512,0.007 -0.141249,0.007 -0.08268,0 -0.137804,-0.007 -0.05512,-0.007 -0.08957,-0.0207 -0.03101,-0.0138 -0.04479,-0.031 -0.01034,-0.0207 -0.01034,-0.0482 v -3.10059 q 0,-0.0276 0.01034,-0.0448 0.01033,-0.0207 0.04134,-0.0344 0.03101,-0.0172 0.07924,-0.0207 0.04823,-0.007 0.127469,-0.007 0.07579,0 0.124023,0.007 0.05168,0.003 0.07924,0.0207 0.02756,0.0138 0.0379,0.0344 0.01378,0.0172 0.01378,0.0448 v 0.40997 q 0.261827,-0.29283 0.520209,-0.42719 0.261827,-0.13781 0.5271,-0.13781 0.310058,0 0.520209,0.1068 0.213596,0.10335 0.34451,0.27905 0.130913,0.1757 0.186035,0.41342 0.05857,0.23426 0.05857,0.56499 z"
         style="font-style:normal;font-variant:normal;font-weight:normal;font-stretch:normal;font-size:7.05555582px;font-family:Calibri;-inkscape-font-specification:'Calibri, Normal';font-variant-ligatures:normal;font-variant-caps:normal;font-variant-numeric:normal;font-feature-settings:normal;text-align:start;writing-mode:lr-tb;text-anchor:start;fill:#0000ff;fill-opacity:1;stroke-width:0.26458335"
         id="path1134"
         inkscape:connector-curvature="0" />
      <path
         d="m 88.613146,236.42103 q 0,0.0276 -0.01378,0.0482 -0.01034,0.0207 -0.04134,0.0345 -0.02756,0.0103 -0.07579,0.0172 -0.04823,0.007 -0.117133,0.007 -0.07235,0 -0.120579,-0.007 -0.04823,-0.007 -0.07924,-0.0172 -0.03101,-0.0138 -0.04479,-0.0345 -0.01378,-0.0207 -0.01378,-0.0482 v -0.40997 q -0.244602,0.26527 -0.509875,0.41341 -0.261827,0.14814 -0.575331,0.14814 -0.341064,0 -0.582221,-0.13091 -0.241156,-0.13436 -0.392741,-0.35829 -0.148139,-0.22738 -0.217041,-0.53055 -0.0689,-0.30661 -0.0689,-0.64423 0,-0.39963 0.08613,-0.72002 0.08613,-0.32384 0.254937,-0.55122 0.16881,-0.22737 0.416856,-0.34795 0.251492,-0.12403 0.578777,-0.12403 0.272162,0 0.496093,0.12058 0.227377,0.11714 0.447863,0.34796 v -1.80179 q 0,-0.0241 0.01034,-0.0448 0.01378,-0.0241 0.04823,-0.0345 0.03445,-0.0138 0.08613,-0.0207 0.05512,-0.0103 0.137804,-0.0103 0.08613,0 0.141249,0.0103 0.05512,0.007 0.08613,0.0207 0.03101,0.0103 0.04479,0.0345 0.01723,0.0207 0.01723,0.0448 z m -0.571886,-2.18075 q -0.230822,-0.28594 -0.447863,-0.43408 -0.213596,-0.15158 -0.447862,-0.15158 -0.217041,0 -0.368625,0.10335 -0.151585,0.10335 -0.248047,0.27216 -0.09302,0.16881 -0.137804,0.38241 -0.04134,0.21359 -0.04134,0.43408 0,0.23427 0.03445,0.4582 0.0379,0.22393 0.127468,0.39963 0.08957,0.17225 0.237712,0.27905 0.148139,0.10335 0.37207,0.10335 0.113688,0 0.217041,-0.031 0.106798,-0.031 0.217041,-0.10335 0.110243,-0.0724 0.230822,-0.18604 0.120578,-0.11713 0.254937,-0.28594 z"
         style="font-style:normal;font-variant:normal;font-weight:normal;font-stretch:normal;font-size:7.05555582px;font-family:Calibri;-inkscape-font-specification:'Calibri, Normal';font-variant-ligatures:normal;font-variant-caps:normal;font-variant-numeric:normal;font-feature-settings:normal;text-align:start;writing-mode:lr-tb;text-anchor:start;fill:#0000ff;fill-opacity:1;stroke-width:0.26458335"
         id="path1136"
         inkscape:connector-curvature="0" />
      <path
         d="m 91.999675,236.42447 q 0,0.0413 -0.02756,0.062 -0.02756,0.0207 -0.07579,0.031 -0.04823,0.0103 -0.141249,0.0103 -0.08957,0 -0.144694,-0.0103 -0.05168,-0.0103 -0.07579,-0.031 -0.02412,-0.0207 -0.02412,-0.062 v -0.31005 q -0.203261,0.21704 -0.454753,0.33761 -0.248047,0.12058 -0.5271,0.12058 -0.244601,0 -0.444417,-0.0654 -0.19637,-0.062 -0.337619,-0.18259 -0.137804,-0.12058 -0.217041,-0.29628 -0.07579,-0.1757 -0.07579,-0.39963 0,-0.26183 0.106798,-0.45476 0.106797,-0.19292 0.306613,-0.32039 0.199816,-0.12747 0.489204,-0.18948 0.289388,-0.0655 0.651123,-0.0655 h 0.427192 v -0.24115 q 0,-0.17915 -0.0379,-0.31695 -0.0379,-0.13781 -0.124023,-0.22738 -0.08268,-0.093 -0.217041,-0.1378 -0.134359,-0.0482 -0.330729,-0.0482 -0.210151,0 -0.378961,0.0517 -0.165364,0.0482 -0.292833,0.11025 -0.124023,0.0586 -0.210151,0.11024 -0.08268,0.0482 -0.124023,0.0482 -0.02756,0 -0.04823,-0.0138 -0.02067,-0.0138 -0.0379,-0.0413 -0.01378,-0.0276 -0.02067,-0.0689 -0.0069,-0.0448 -0.0069,-0.0965 0,-0.0861 0.01033,-0.13435 0.01378,-0.0517 0.05857,-0.0965 0.04823,-0.0448 0.161919,-0.10335 0.113688,-0.062 0.261827,-0.11024 0.14814,-0.0517 0.323839,-0.0827 0.1757,-0.0344 0.354845,-0.0344 0.334175,0 0.568441,0.0758 0.234267,0.0758 0.378961,0.22393 0.144694,0.14469 0.21015,0.36173 0.06546,0.21704 0.06546,0.50643 z m -0.564995,-1.41593 h -0.485759 q -0.234266,0 -0.406521,0.0413 -0.172255,0.0379 -0.285943,0.11713 -0.113688,0.0758 -0.16881,0.18604 -0.05168,0.1068 -0.05168,0.24805 0,0.24115 0.151584,0.38585 0.155029,0.14125 0.430637,0.14125 0.223931,0 0.413411,-0.11369 0.192926,-0.11369 0.403077,-0.34796 z"
         style="font-style:normal;font-variant:normal;font-weight:normal;font-stretch:normal;font-size:7.05555582px;font-family:Calibri;-inkscape-font-specification:'Calibri, Normal';font-variant-ligatures:normal;font-variant-caps:normal;font-variant-numeric:normal;font-feature-settings:normal;text-align:start;writing-mode:lr-tb;text-anchor:start;fill:#0000ff;fill-opacity:1;stroke-width:0.26458335"
         id="path1138"
         inkscape:connector-curvature="0" />
      <path
         d="m 94.852213,233.5237 q 0,0.0758 -0.0034,0.12747 -0.0034,0.0517 -0.01378,0.0827 -0.01033,0.0276 -0.02756,0.0448 -0.01378,0.0138 -0.04134,0.0138 -0.02756,0 -0.0689,-0.0138 -0.0379,-0.0172 -0.08957,-0.031 -0.04823,-0.0172 -0.110243,-0.031 -0.06201,-0.0138 -0.134359,-0.0138 -0.08613,0 -0.168809,0.0344 -0.08268,0.0344 -0.1757,0.11369 -0.08957,0.0792 -0.189481,0.21015 -0.09991,0.13091 -0.220486,0.32039 v 2.0395 q 0,0.0276 -0.01378,0.0482 -0.01378,0.0172 -0.04479,0.031 -0.03101,0.0138 -0.08613,0.0207 -0.05512,0.007 -0.141249,0.007 -0.08268,0 -0.137803,-0.007 -0.05512,-0.007 -0.08957,-0.0207 -0.03101,-0.0138 -0.04479,-0.031 -0.01034,-0.0207 -0.01034,-0.0482 v -3.10059 q 0,-0.0276 0.01034,-0.0448 0.01033,-0.0207 0.04134,-0.0344 0.03101,-0.0172 0.07924,-0.0207 0.04823,-0.007 0.127469,-0.007 0.07579,0 0.124023,0.007 0.05168,0.003 0.07924,0.0207 0.02756,0.0138 0.0379,0.0344 0.01378,0.0172 0.01378,0.0448 v 0.45131 q 0.127468,-0.18603 0.237711,-0.30317 0.113688,-0.11713 0.213596,-0.18259 0.09991,-0.0689 0.196371,-0.093 0.09991,-0.0276 0.199815,-0.0276 0.04479,0 0.09991,0.007 0.05857,0.003 0.120578,0.0172 0.06201,0.0138 0.110243,0.031 0.05168,0.0172 0.07235,0.0344 0.02067,0.0172 0.02756,0.0345 0.0069,0.0138 0.01033,0.0379 0.0069,0.0241 0.0069,0.0724 0.0034,0.0448 0.0034,0.12402 z"
         style="font-style:normal;font-variant:normal;font-weight:normal;font-stretch:normal;font-size:7.05555582px;font-family:Calibri;-inkscape-font-specification:'Calibri, Normal';font-variant-ligatures:normal;font-variant-caps:normal;font-variant-numeric:normal;font-feature-settings:normal;text-align:start;writing-mode:lr-tb;text-anchor:start;fill:#0000ff;fill-opacity:1;stroke-width:0.26458335"
         id="path1140"
         inkscape:connector-curvature="0" />
    </g>
  </g>
</svg>
