<?xml version="1.0" encoding="UTF-8" standalone="no"?>
<!-- Created with Inkscape (http://www.inkscape.org/) -->

<svg
   xmlns:dc="http://purl.org/dc/elements/1.1/"
   xmlns:cc="http://creativecommons.org/ns#"
   xmlns:rdf="http://www.w3.org/1999/02/22-rdf-syntax-ns#"
   xmlns:svg="http://www.w3.org/2000/svg"
   xmlns="http://www.w3.org/2000/svg"
   xmlns:xlink="http://www.w3.org/1999/xlink"
   xmlns:sodipodi="http://sodipodi.sourceforge.net/DTD/sodipodi-0.dtd"
   xmlns:inkscape="http://www.inkscape.org/namespaces/inkscape"
   width="141.94319"
   height="56.491577"
   viewBox="0 0 37.555803 14.94673"
   version="1.1"
   id="svg54904"
   inkscape:version="0.92.3 (2405546, 2018-03-11)"
   sodipodi:docname="cage-selected.svg">
  <title
     id="title831">cage page selected v0.1</title>
  <defs
     id="defs54898">
    <linearGradient
       inkscape:collect="always"
       id="linearGradient8597">
      <stop
         style="stop-color:#404040;stop-opacity:1;"
         offset="0"
         id="stop8593" />
      <stop
         style="stop-color:#c4c4c4;stop-opacity:1"
         offset="1"
         id="stop8595" />
    </linearGradient>
    <linearGradient
       inkscape:collect="always"
       id="linearGradient7571">
      <stop
         style="stop-color:#404040;stop-opacity:1;"
         offset="0"
         id="stop7567" />
      <stop
         style="stop-color:#404040;stop-opacity:0;"
         offset="1"
         id="stop7569" />
    </linearGradient>
    <linearGradient
       inkscape:collect="always"
       xlink:href="#linearGradient7571"
       id="linearGradient7575"
       x1="-31.45418"
       y1="314.81302"
       x2="-31.41428"
       y2="288.1828"
       gradientUnits="userSpaceOnUse"
       gradientTransform="translate(-0.323705,-35.490331)" />
    <linearGradient
       inkscape:collect="always"
       xlink:href="#linearGradient8597"
       id="linearGradient8749"
       gradientUnits="userSpaceOnUse"
       x1="-53.526844"
       y1="283.96008"
       x2="-53.30695"
       y2="257.41086" />
    <filter
       inkscape:collect="always"
       style="color-interpolation-filters:sRGB"
       id="filter1771"
       x="-0.072149467"
       width="1.1442989"
       y="-0.3563093"
       height="1.7126186">
      <feGaussianBlur
         inkscape:collect="always"
         stdDeviation="0.85671007"
         id="feGaussianBlur1773" />
    </filter>
  </defs>
  <sodipodi:namedview
     id="base"
     pagecolor="#ffffff"
     bordercolor="#666666"
     borderopacity="1.0"
     inkscape:pageopacity="0.0"
     inkscape:pageshadow="2"
     inkscape:zoom="1"
     inkscape:cx="-17.90375"
     inkscape:cy="-63.24469"
     inkscape:document-units="px"
     inkscape:current-layer="layer1"
     showgrid="false"
     units="px"
     inkscape:showpageshadow="false"
     objecttolerance="10"
     gridtolerance="10"
     guidetolerance="10"
     inkscape:window-width="1366"
     inkscape:window-height="715"
     inkscape:window-x="-8"
     inkscape:window-y="-8"
     inkscape:window-maximized="1"
     fit-margin-top="0"
     fit-margin-left="0"
     fit-margin-right="0"
     fit-margin-bottom="0" />
  <metadata
     id="metadata54901">
    <rdf:RDF>
      <cc:Work
         rdf:about="">
        <dc:format>image/svg+xml</dc:format>
        <dc:type
           rdf:resource="http://purl.org/dc/dcmitype/StillImage" />
        <dc:title>cage page selected v0.1</dc:title>
        <dc:date>4/10/2020</dc:date>
        <dc:creator>
          <cc:Agent>
            <dc:title>Bill McCutchan</dc:title>
          </cc:Agent>
        </dc:creator>
        <dc:rights>
          <cc:Agent>
            <dc:title />
          </cc:Agent>
        </dc:rights>
        <dc:description>This image was created for use on a promotional website I created in April 2020.  Please consider it copyrighted.  You may use or distribute this image free of charge as long as you make no charge for it and as long as you properly attribute it to me.</dc:description>
      </cc:Work>
    </rdf:RDF>
  </metadata>
  <g
     inkscape:label="Layer 1"
     inkscape:groupmode="layer"
     id="layer1"
     transform="translate(-40.620238,-230.12848)">
    <g
       aria-label="Cage Page"
       style="font-style:normal;font-weight:normal;font-size:10.58333302px;line-height:1.25;font-family:sans-serif;letter-spacing:0px;word-spacing:0px;fill:#0000ff;fill-opacity:1;stroke:none;stroke-width:0.26458335;filter:url(#filter1771)"
       id="text835-1"
       transform="translate(2.9028485,-12.235845)">
      <path
         d="m 45.481267,250.83506 q 0,0.0551 -0.0034,0.0965 -0.0034,0.0413 -0.01378,0.0723 -0.0069,0.031 -0.02067,0.0551 -0.01378,0.0241 -0.04823,0.0586 -0.03445,0.0344 -0.144694,0.1068 -0.110243,0.0689 -0.275607,0.1378 -0.16192,0.0655 -0.375516,0.11025 -0.210151,0.0482 -0.461643,0.0482 -0.434082,0 -0.785482,-0.1447 -0.347954,-0.14469 -0.596001,-0.42719 -0.244602,-0.2825 -0.378961,-0.69591 -0.130913,-0.41686 -0.130913,-0.95774 0,-0.55466 0.141249,-0.98874 0.144694,-0.43408 0.403076,-0.7338 0.258382,-0.30317 0.616672,-0.46165 0.361735,-0.15847 0.799262,-0.15847 0.192926,0 0.375516,0.0379 0.18259,0.0344 0.337619,0.0896 0.155029,0.0551 0.275608,0.12747 0.120578,0.0723 0.165364,0.12058 0.04823,0.0448 0.06201,0.0689 0.01378,0.0241 0.02067,0.0586 0.01033,0.031 0.01378,0.0758 0.0069,0.0448 0.0069,0.10679 0,0.0689 -0.0069,0.11714 -0.0069,0.0482 -0.02067,0.0827 -0.01378,0.031 -0.03445,0.0482 -0.01722,0.0138 -0.04479,0.0138 -0.04823,0 -0.134359,-0.0655 -0.08613,-0.0689 -0.223931,-0.14813 -0.134359,-0.0827 -0.330729,-0.14814 -0.192925,-0.0689 -0.465088,-0.0689 -0.296278,0 -0.54088,0.12058 -0.241157,0.11714 -0.413411,0.34796 -0.172255,0.23082 -0.268718,0.56499 -0.09302,0.33073 -0.09302,0.75792 0,0.42375 0.08957,0.75103 0.09302,0.32384 0.261827,0.54433 0.172255,0.21704 0.420302,0.33073 0.248047,0.11024 0.561551,0.11024 0.265272,0 0.461642,-0.0654 0.199816,-0.0655 0.33762,-0.1447 0.141249,-0.0827 0.230821,-0.14814 0.08957,-0.0654 0.141249,-0.0654 0.02412,0 0.04134,0.0103 0.01723,0.0103 0.02756,0.0413 0.01033,0.0276 0.01378,0.0792 0.0069,0.0517 0.0069,0.13091 z"
         style="font-style:normal;font-variant:normal;font-weight:normal;font-stretch:normal;font-size:7.05555582px;font-family:Calibri;-inkscape-font-specification:'Calibri, Normal';font-variant-ligatures:normal;font-variant-caps:normal;font-variant-numeric:normal;font-feature-settings:normal;text-align:start;writing-mode:lr-tb;text-anchor:start;fill:#0000ff;fill-opacity:1;stroke-width:0.26458335"
         id="path1754"
         inkscape:connector-curvature="0" />
      <path
         d="m 48.537066,251.38283 q 0,0.0413 -0.02756,0.062 -0.02756,0.0207 -0.07579,0.031 -0.04823,0.0103 -0.141249,0.0103 -0.08957,0 -0.144694,-0.0103 -0.05168,-0.0103 -0.07579,-0.031 -0.02412,-0.0207 -0.02412,-0.062 v -0.31006 q -0.203261,0.21705 -0.454753,0.33762 -0.248047,0.12058 -0.527099,0.12058 -0.244602,0 -0.444418,-0.0654 -0.19637,-0.062 -0.337619,-0.18259 -0.137804,-0.12058 -0.217041,-0.29628 -0.07579,-0.1757 -0.07579,-0.39963 0,-0.26183 0.106798,-0.45476 0.106798,-0.19292 0.306613,-0.32039 0.199816,-0.12747 0.489204,-0.18948 0.289388,-0.0655 0.651123,-0.0655 h 0.427192 v -0.24115 q 0,-0.17915 -0.0379,-0.31695 -0.0379,-0.13781 -0.124024,-0.22738 -0.08268,-0.093 -0.217041,-0.1378 -0.134359,-0.0482 -0.330729,-0.0482 -0.210151,0 -0.37896,0.0517 -0.165365,0.0482 -0.292834,0.11024 -0.124023,0.0586 -0.21015,0.11025 -0.08268,0.0482 -0.124024,0.0482 -0.02756,0 -0.04823,-0.0138 -0.02067,-0.0138 -0.0379,-0.0413 -0.01378,-0.0276 -0.02067,-0.0689 -0.0069,-0.0448 -0.0069,-0.0965 0,-0.0861 0.01034,-0.13436 0.01378,-0.0517 0.05857,-0.0965 0.04823,-0.0448 0.161919,-0.10335 0.113689,-0.062 0.261828,-0.11024 0.148139,-0.0517 0.323839,-0.0827 0.175699,-0.0344 0.354844,-0.0344 0.334175,0 0.568441,0.0758 0.234267,0.0758 0.378961,0.22394 0.144694,0.14469 0.210151,0.36173 0.06546,0.21704 0.06546,0.50643 z m -0.564995,-1.41593 h -0.485759 q -0.234266,0 -0.406521,0.0413 -0.172255,0.0379 -0.285943,0.11713 -0.113688,0.0758 -0.16881,0.18604 -0.05168,0.1068 -0.05168,0.24804 0,0.24116 0.151584,0.38586 0.155029,0.14124 0.430637,0.14124 0.223931,0 0.413412,-0.11368 0.192925,-0.11369 0.403076,-0.34796 z"
         style="font-style:normal;font-variant:normal;font-weight:normal;font-stretch:normal;font-size:7.05555582px;font-family:Calibri;-inkscape-font-specification:'Calibri, Normal';font-variant-ligatures:normal;font-variant-caps:normal;font-variant-numeric:normal;font-feature-settings:normal;text-align:start;writing-mode:lr-tb;text-anchor:start;fill:#0000ff;fill-opacity:1;stroke-width:0.26458335"
         id="path1756"
         inkscape:connector-curvature="0" />
      <path
         d="m 52.168197,248.42005 q 0,0.12058 -0.03445,0.1757 -0.03101,0.0517 -0.08268,0.0517 h -0.444418 q 0.120579,0.12402 0.16881,0.2756 0.04823,0.14814 0.04823,0.31006 0,0.26872 -0.08613,0.47543 -0.08613,0.2067 -0.248047,0.3514 -0.158474,0.14125 -0.37896,0.21704 -0.220486,0.0758 -0.489204,0.0758 -0.18948,0 -0.361735,-0.0482 -0.16881,-0.0517 -0.261827,-0.12747 -0.06201,0.062 -0.103353,0.14125 -0.0379,0.0792 -0.0379,0.18259 0,0.12058 0.110243,0.19981 0.113688,0.0792 0.299723,0.0861 l 0.809598,0.0344 q 0.230821,0.007 0.423746,0.0655 0.192926,0.0551 0.334175,0.16192 0.141249,0.10335 0.220486,0.25838 0.07924,0.15158 0.07924,0.35485 0,0.21359 -0.08957,0.40652 -0.08957,0.19292 -0.275608,0.33762 -0.18259,0.14814 -0.468533,0.23082 -0.285943,0.0861 -0.675239,0.0861 -0.375515,0 -0.640788,-0.0655 -0.261827,-0.062 -0.430637,-0.17226 -0.168809,-0.11024 -0.244601,-0.26527 -0.07579,-0.15158 -0.07579,-0.33073 0,-0.11369 0.02756,-0.22048 0.02756,-0.1068 0.08268,-0.20326 0.05857,-0.0965 0.141249,-0.18259 0.08613,-0.0896 0.19637,-0.1757 -0.16881,-0.0861 -0.251492,-0.21705 -0.07924,-0.13091 -0.07924,-0.28249 0,-0.21015 0.08613,-0.37552 0.08613,-0.16536 0.213596,-0.29628 -0.106798,-0.12747 -0.16881,-0.28594 -0.06201,-0.16192 -0.06201,-0.3893 0,-0.26527 0.08957,-0.47542 0.08957,-0.21015 0.248047,-0.35484 0.158474,-0.1447 0.378961,-0.22049 0.223931,-0.0792 0.485758,-0.0792 0.141249,0 0.261827,0.0172 0.124024,0.0138 0.230822,0.0413 h 0.937066 q 0.05857,0 0.08613,0.0586 0.03101,0.0551 0.03101,0.17225 z m -0.888835,0.81649 q 0,-0.31695 -0.1757,-0.49265 -0.172254,-0.17915 -0.492648,-0.17915 -0.165365,0 -0.289388,0.0551 -0.120579,0.0551 -0.203261,0.15158 -0.07924,0.0965 -0.120578,0.22393 -0.0379,0.12403 -0.0379,0.26183 0,0.30661 0.172254,0.48231 0.1757,0.1757 0.489204,0.1757 0.16881,0 0.292833,-0.0517 0.124024,-0.0551 0.203261,-0.14814 0.08268,-0.0965 0.120578,-0.22049 0.04134,-0.12402 0.04134,-0.25838 z m 0.285943,2.45635 q 0,-0.19981 -0.165364,-0.30661 -0.16192,-0.11025 -0.440973,-0.11714 l -0.802707,-0.0276 q -0.110243,0.0861 -0.18259,0.16537 -0.0689,0.0758 -0.110243,0.14469 -0.04134,0.0724 -0.05857,0.14125 -0.01378,0.0689 -0.01378,0.14125 0,0.22393 0.227376,0.33762 0.227377,0.11713 0.633898,0.11713 0.258382,0 0.430637,-0.0517 0.1757,-0.0482 0.282498,-0.13092 0.106798,-0.0827 0.151584,-0.18948 0.04823,-0.1068 0.04823,-0.22393 z"
         style="font-style:normal;font-variant:normal;font-weight:normal;font-stretch:normal;font-size:7.05555582px;font-family:Calibri;-inkscape-font-specification:'Calibri, Normal';font-variant-ligatures:normal;font-variant-caps:normal;font-variant-numeric:normal;font-feature-settings:normal;text-align:start;writing-mode:lr-tb;text-anchor:start;fill:#0000ff;fill-opacity:1;stroke-width:0.26458335"
         id="path1758"
         inkscape:connector-curvature="0" />
      <path
         d="m 55.48927,249.69474 q 0,0.13435 -0.0689,0.19292 -0.06546,0.0551 -0.151584,0.0551 h -2.032607 q 0,0.25839 0.05168,0.46509 0.05168,0.20671 0.172254,0.35485 0.120579,0.14813 0.313504,0.22737 0.192925,0.0792 0.471978,0.0792 0.220486,0 0.392741,-0.0345 0.172255,-0.0379 0.296278,-0.0827 0.127469,-0.0448 0.206706,-0.0792 0.08268,-0.0379 0.124023,-0.0379 0.02412,0 0.04134,0.0138 0.02067,0.0103 0.03101,0.0344 0.01034,0.0241 0.01378,0.0689 0.0069,0.0413 0.0069,0.10335 0,0.0448 -0.0034,0.0792 -0.0034,0.031 -0.01033,0.0586 -0.0034,0.0241 -0.01723,0.0448 -0.01034,0.0207 -0.03101,0.0413 -0.01722,0.0172 -0.110243,0.062 -0.09302,0.0413 -0.241156,0.0827 -0.14814,0.0413 -0.34451,0.0724 -0.192925,0.0344 -0.413411,0.0344 -0.382406,0 -0.671794,-0.1068 -0.285943,-0.10679 -0.482313,-0.31694 -0.196371,-0.21016 -0.296279,-0.5271 -0.09991,-0.31695 -0.09991,-0.73725 0,-0.39964 0.103352,-0.71658 0.103353,-0.3204 0.296279,-0.54088 0.19637,-0.22394 0.471978,-0.34107 0.275607,-0.12058 0.616672,-0.12058 0.36518,0 0.620117,0.11714 0.258382,0.11713 0.423747,0.31694 0.165364,0.19637 0.241156,0.46509 0.07924,0.26527 0.07924,0.56844 z m -0.571886,-0.16881 q 0.01034,-0.44787 -0.199816,-0.7028 -0.206705,-0.25494 -0.616672,-0.25494 -0.210151,0 -0.368625,0.0792 -0.158474,0.0792 -0.265272,0.21015 -0.106798,0.13091 -0.165365,0.30661 -0.05857,0.17226 -0.06546,0.36174 z"
         style="font-style:normal;font-variant:normal;font-weight:normal;font-stretch:normal;font-size:7.05555582px;font-family:Calibri;-inkscape-font-specification:'Calibri, Normal';font-variant-ligatures:normal;font-variant-caps:normal;font-variant-numeric:normal;font-feature-settings:normal;text-align:start;writing-mode:lr-tb;text-anchor:start;fill:#0000ff;fill-opacity:1;stroke-width:0.26458335"
         id="path1760"
         inkscape:connector-curvature="0" />
      <path
         d="m 60.760265,248.31325 q 0,0.33418 -0.110243,0.60289 -0.110243,0.26872 -0.316949,0.4582 -0.20326,0.18948 -0.502984,0.29284 -0.296278,0.10335 -0.709689,0.10335 h -0.506429 v 1.60541 q 0,0.0276 -0.01723,0.0482 -0.01378,0.0207 -0.04823,0.0344 -0.03101,0.0103 -0.08957,0.0172 -0.05512,0.0103 -0.141249,0.0103 -0.08613,0 -0.144694,-0.0103 -0.05512,-0.007 -0.08957,-0.0172 -0.03445,-0.0138 -0.04823,-0.0344 -0.01378,-0.0207 -0.01378,-0.0482 v -4.11344 q 0,-0.13781 0.07235,-0.19637 0.07235,-0.0586 0.16192,-0.0586 h 0.954291 q 0.144694,0 0.275608,0.0138 0.134359,0.0103 0.313504,0.0517 0.18259,0.0379 0.368625,0.14814 0.18948,0.1068 0.320394,0.26527 0.130913,0.15847 0.199815,0.36862 0.07235,0.20671 0.07235,0.4582 z m -0.623562,0.0482 q 0,-0.27216 -0.103353,-0.45475 -0.09991,-0.18259 -0.251492,-0.27216 -0.148139,-0.0896 -0.310058,-0.11369 -0.158475,-0.0241 -0.310059,-0.0241 h -0.54777 v 1.78801 h 0.53399 q 0.268717,0 0.444417,-0.0689 0.179145,-0.0689 0.299723,-0.18948 0.120579,-0.12403 0.18259,-0.29284 0.06201,-0.17225 0.06201,-0.37207 z"
         style="font-style:normal;font-variant:normal;font-weight:normal;font-stretch:normal;font-size:7.05555582px;font-family:Calibri;-inkscape-font-specification:'Calibri, Normal';font-variant-ligatures:normal;font-variant-caps:normal;font-variant-numeric:normal;font-feature-settings:normal;text-align:start;writing-mode:lr-tb;text-anchor:start;fill:#0000ff;fill-opacity:1;stroke-width:0.26458335"
         id="path1762"
         inkscape:connector-curvature="0" />
      <path
         d="m 63.79195,251.38283 q 0,0.0413 -0.02756,0.062 -0.02756,0.0207 -0.07579,0.031 -0.04823,0.0103 -0.141249,0.0103 -0.08957,0 -0.144694,-0.0103 -0.05168,-0.0103 -0.07579,-0.031 -0.02412,-0.0207 -0.02412,-0.062 v -0.31006 q -0.203261,0.21705 -0.454753,0.33762 -0.248046,0.12058 -0.527099,0.12058 -0.244602,0 -0.444417,-0.0654 -0.196371,-0.062 -0.33762,-0.18259 -0.137804,-0.12058 -0.217041,-0.29628 -0.07579,-0.1757 -0.07579,-0.39963 0,-0.26183 0.106798,-0.45476 0.106798,-0.19292 0.306614,-0.32039 0.199815,-0.12747 0.489203,-0.18948 0.289388,-0.0655 0.651123,-0.0655 h 0.427192 v -0.24115 q 0,-0.17915 -0.0379,-0.31695 -0.0379,-0.13781 -0.124023,-0.22738 -0.08268,-0.093 -0.217042,-0.1378 -0.134358,-0.0482 -0.330729,-0.0482 -0.210151,0 -0.37896,0.0517 -0.165365,0.0482 -0.292833,0.11024 -0.124024,0.0586 -0.210151,0.11025 -0.08268,0.0482 -0.124024,0.0482 -0.02756,0 -0.04823,-0.0138 -0.02067,-0.0138 -0.0379,-0.0413 -0.01378,-0.0276 -0.02067,-0.0689 -0.0069,-0.0448 -0.0069,-0.0965 0,-0.0861 0.01034,-0.13436 0.01378,-0.0517 0.05857,-0.0965 0.04823,-0.0448 0.16192,-0.10335 0.113688,-0.062 0.261827,-0.11024 0.148139,-0.0517 0.323839,-0.0827 0.1757,-0.0344 0.354845,-0.0344 0.334174,0 0.568441,0.0758 0.234266,0.0758 0.37896,0.22394 0.144694,0.14469 0.210151,0.36173 0.06546,0.21704 0.06546,0.50643 z m -0.564996,-1.41593 h -0.485758 q -0.234267,0 -0.406522,0.0413 -0.172255,0.0379 -0.285943,0.11713 -0.113688,0.0758 -0.168809,0.18604 -0.05168,0.1068 -0.05168,0.24804 0,0.24116 0.151584,0.38586 0.15503,0.14124 0.430637,0.14124 0.223932,0 0.413412,-0.11368 0.192925,-0.11369 0.403076,-0.34796 z"
         style="font-style:normal;font-variant:normal;font-weight:normal;font-stretch:normal;font-size:7.05555582px;font-family:Calibri;-inkscape-font-specification:'Calibri, Normal';font-variant-ligatures:normal;font-variant-caps:normal;font-variant-numeric:normal;font-feature-settings:normal;text-align:start;writing-mode:lr-tb;text-anchor:start;fill:#0000ff;fill-opacity:1;stroke-width:0.26458335"
         id="path1764"
         inkscape:connector-curvature="0" />
      <path
         d="m 67.423081,248.42005 q 0,0.12058 -0.03445,0.1757 -0.03101,0.0517 -0.08268,0.0517 H 66.86153 q 0.120579,0.12402 0.16881,0.2756 0.04823,0.14814 0.04823,0.31006 0,0.26872 -0.08613,0.47543 -0.08613,0.2067 -0.248047,0.3514 -0.158474,0.14125 -0.378961,0.21704 -0.220486,0.0758 -0.489203,0.0758 -0.18948,0 -0.361735,-0.0482 -0.16881,-0.0517 -0.261827,-0.12747 -0.06201,0.062 -0.103353,0.14125 -0.0379,0.0792 -0.0379,0.18259 0,0.12058 0.110243,0.19981 0.113688,0.0792 0.299723,0.0861 l 0.809597,0.0344 q 0.230822,0.007 0.423747,0.0655 0.192926,0.0551 0.334174,0.16192 0.141249,0.10335 0.220487,0.25838 0.07924,0.15158 0.07924,0.35485 0,0.21359 -0.08957,0.40652 -0.08957,0.19292 -0.275607,0.33762 -0.18259,0.14814 -0.468533,0.23082 -0.285943,0.0861 -0.675239,0.0861 -0.375515,0 -0.640788,-0.0655 -0.261827,-0.062 -0.430637,-0.17226 -0.168809,-0.11024 -0.244602,-0.26527 -0.07579,-0.15158 -0.07579,-0.33073 0,-0.11369 0.02756,-0.22048 0.02756,-0.1068 0.08268,-0.20326 0.05857,-0.0965 0.141249,-0.18259 0.08613,-0.0896 0.196371,-0.1757 -0.16881,-0.0861 -0.251492,-0.21705 -0.07924,-0.13091 -0.07924,-0.28249 0,-0.21015 0.08613,-0.37552 0.08613,-0.16536 0.213596,-0.29628 -0.106798,-0.12747 -0.16881,-0.28594 -0.06201,-0.16192 -0.06201,-0.3893 0,-0.26527 0.08957,-0.47542 0.08957,-0.21015 0.248047,-0.35484 0.158474,-0.1447 0.37896,-0.22049 0.223932,-0.0792 0.485759,-0.0792 0.141249,0 0.261827,0.0172 0.124024,0.0138 0.230822,0.0413 h 0.937066 q 0.05857,0 0.08613,0.0586 0.03101,0.0551 0.03101,0.17225 z m -0.888835,0.81649 q 0,-0.31695 -0.1757,-0.49265 -0.172255,-0.17915 -0.492648,-0.17915 -0.165365,0 -0.289388,0.0551 -0.120579,0.0551 -0.203261,0.15158 -0.07924,0.0965 -0.120578,0.22393 -0.0379,0.12403 -0.0379,0.26183 0,0.30661 0.172255,0.48231 0.1757,0.1757 0.489204,0.1757 0.16881,0 0.292833,-0.0517 0.124023,-0.0551 0.203261,-0.14814 0.08268,-0.0965 0.120578,-0.22049 0.04134,-0.12402 0.04134,-0.25838 z m 0.285943,2.45635 q 0,-0.19981 -0.165365,-0.30661 -0.161919,-0.11025 -0.440972,-0.11714 l -0.802707,-0.0276 q -0.110243,0.0861 -0.18259,0.16537 -0.0689,0.0758 -0.110243,0.14469 -0.04134,0.0724 -0.05857,0.14125 -0.01378,0.0689 -0.01378,0.14125 0,0.22393 0.227376,0.33762 0.227376,0.11713 0.633898,0.11713 0.258382,0 0.430637,-0.0517 0.1757,-0.0482 0.282497,-0.13092 0.106798,-0.0827 0.151585,-0.18948 0.04823,-0.1068 0.04823,-0.22393 z"
         style="font-style:normal;font-variant:normal;font-weight:normal;font-stretch:normal;font-size:7.05555582px;font-family:Calibri;-inkscape-font-specification:'Calibri, Normal';font-variant-ligatures:normal;font-variant-caps:normal;font-variant-numeric:normal;font-feature-settings:normal;text-align:start;writing-mode:lr-tb;text-anchor:start;fill:#0000ff;fill-opacity:1;stroke-width:0.26458335"
         id="path1766"
         inkscape:connector-curvature="0" />
      <path
         d="m 70.744153,249.69474 q 0,0.13435 -0.0689,0.19292 -0.06546,0.0551 -0.151585,0.0551 h -2.032606 q 0,0.25839 0.05168,0.46509 0.05168,0.20671 0.172255,0.35485 0.120578,0.14813 0.313504,0.22737 0.192925,0.0792 0.471978,0.0792 0.220486,0 0.392741,-0.0345 0.172255,-0.0379 0.296278,-0.0827 0.127469,-0.0448 0.206706,-0.0792 0.08268,-0.0379 0.124023,-0.0379 0.02412,0 0.04134,0.0138 0.02067,0.0103 0.03101,0.0344 0.01034,0.0241 0.01378,0.0689 0.0069,0.0413 0.0069,0.10335 0,0.0448 -0.0034,0.0792 -0.0034,0.031 -0.01034,0.0586 -0.0034,0.0241 -0.01722,0.0448 -0.01033,0.0207 -0.03101,0.0413 -0.01722,0.0172 -0.110243,0.062 -0.09302,0.0413 -0.241157,0.0827 -0.148139,0.0413 -0.344509,0.0724 -0.192926,0.0344 -0.413412,0.0344 -0.382405,0 -0.671793,-0.1068 -0.285943,-0.10679 -0.482314,-0.31694 -0.19637,-0.21016 -0.296278,-0.5271 -0.09991,-0.31695 -0.09991,-0.73725 0,-0.39964 0.103353,-0.71658 0.103353,-0.3204 0.296278,-0.54088 0.196371,-0.22394 0.471978,-0.34107 0.275608,-0.12058 0.616673,-0.12058 0.36518,0 0.620117,0.11714 0.258382,0.11713 0.423747,0.31694 0.165364,0.19637 0.241156,0.46509 0.07924,0.26527 0.07924,0.56844 z m -0.571885,-0.16881 q 0.01033,-0.44787 -0.199816,-0.7028 -0.206706,-0.25494 -0.616672,-0.25494 -0.210151,0 -0.368625,0.0792 -0.158475,0.0792 -0.265273,0.21015 -0.106798,0.13091 -0.165364,0.30661 -0.05857,0.17226 -0.06546,0.36174 z"
         style="font-style:normal;font-variant:normal;font-weight:normal;font-stretch:normal;font-size:7.05555582px;font-family:Calibri;-inkscape-font-specification:'Calibri, Normal';font-variant-ligatures:normal;font-variant-caps:normal;font-variant-numeric:normal;font-feature-settings:normal;text-align:start;writing-mode:lr-tb;text-anchor:start;fill:#0000ff;fill-opacity:1;stroke-width:0.26458335"
         id="path1768"
         inkscape:connector-curvature="0" />
    </g>
    <g
       id="g55616" />
    <text
       xml:space="preserve"
       style="font-style:normal;font-weight:normal;font-size:10.58333397px;line-height:1.25;font-family:sans-serif;letter-spacing:0px;word-spacing:0px;fill:#000000;fill-opacity:1;stroke:none;stroke-width:0.26458335"
       x="44.815052"
       y="239.22964"
       id="text835"><tspan
         sodipodi:role="line"
         id="tspan833"
         x="44.815052"
         y="239.22964"
         style="font-style:normal;font-variant:normal;font-weight:normal;font-stretch:normal;font-size:7.05555582px;font-family:Calibri;-inkscape-font-specification:'Calibri, Normal';font-variant-ligatures:normal;font-variant-caps:normal;font-variant-numeric:normal;font-feature-settings:normal;text-align:start;writing-mode:lr-tb;text-anchor:start;stroke-width:0.26458335">Cage Page</tspan></text>
  </g>
</svg>
